<?xml version="1.0" standalone="no"?>
<!DOCTYPE svg PUBLIC "-//W3C//DTD SVG 20010904//EN"
 "http://www.w3.org/TR/2001/REC-SVG-20010904/DTD/svg10.dtd">
<svg version="1.0" xmlns="http://www.w3.org/2000/svg"
 width="1024.000000pt" height="1024.000000pt" viewBox="0 0 1024.000000 1024.000000"
 preserveAspectRatio="xMidYMid meet">

<g transform="translate(0.000000,1024.000000) scale(0.100000,-0.100000)"
fill="#9561fb" stroke="none">
<path d="M6815 9030 c-53 -27 -77 -63 -83 -121 -5 -51 -6 -48 123 -281 l37
-68 -110 54 c-391 194 -857 328 -1312 378 -174 18 -634 16 -808 -6 -849 -102
-1569 -428 -2190 -990 -331 -300 -640 -715 -833 -1121 -202 -426 -325 -851
-381 -1320 -17 -145 -17 -705 0 -835 32 -237 84 -483 144 -685 24 -81 116
-329 146 -394 l21 -45 -49 -53 c-165 -181 -198 -436 -83 -654 61 -118 189
-225 322 -271 97 -34 278 -33 371 1 126 46 221 120 290 226 57 88 81 164 87
275 7 120 -7 188 -59 292 -97 193 -300 312 -522 307 l-78 -2 -40 94 c-122 292
-209 632 -250 974 -18 159 -16 576 5 745 105 840 463 1588 1029 2147 213 211
372 338 602 483 717 448 1562 623 2421 499 350 -50 677 -152 1005 -312 l165
-80 -65 -8 c-377 -43 -376 -43 -424 -99 -21 -26 -26 -42 -26 -86 0 -68 18
-105 66 -135 46 -28 63 -28 345 5 645 76 651 77 690 122 30 35 49 83 49 126 0
35 -15 71 -78 188 -204 378 -326 597 -346 619 -46 52 -116 64 -181 31z m-4799
-5625 c109 -32 184 -134 184 -250 0 -78 -15 -119 -66 -175 -93 -103 -230 -118
-350 -37 -70 46 -105 109 -112 197 -4 61 -1 76 22 124 62 126 188 181 322 141z"/>
<path d="M8166 7634 c-93 -22 -193 -80 -266 -154 -217 -218 -215 -568 4 -785
116 -116 251 -170 403 -163 l72 3 30 -70 c181 -434 264 -847 265 -1320 1 -723
-205 -1385 -623 -2000 -516 -761 -1345 -1325 -2201 -1498 -733 -149 -1483 -69
-2141 228 -64 28 -148 69 -185 91 l-69 38 190 23 c211 25 262 42 295 95 58 95
-14 228 -123 228 -84 0 -883 -102 -915 -117 -53 -25 -85 -76 -90 -142 -5 -71
-1 -80 235 -510 117 -213 188 -331 206 -345 21 -16 43 -21 85 -21 68 0 110 25
137 81 30 63 17 112 -69 268 -42 76 -76 141 -76 143 0 2 44 -19 98 -46 315
-158 717 -291 1052 -347 197 -33 322 -44 545 -50 627 -18 1185 102 1753 377
932 450 1685 1306 2007 2285 90 275 152 572 181 877 19 206 15 565 -11 777
-40 337 -132 684 -269 1019 l-26 63 46 51 c55 61 97 141 119 228 23 88 17 251
-13 333 -100 273 -373 426 -646 360z m222 -310 c103 -43 166 -171 142 -288
-39 -191 -283 -264 -417 -126 -37 38 -73 124 -73 174 0 53 27 128 62 170 63
76 194 109 286 70z"/>
<path d="M4675 7576 c-77 -34 -95 -86 -95 -280 l0 -154 -112 -36 c-62 -20
-162 -60 -223 -90 l-110 -55 -120 119 c-66 65 -133 124 -148 129 -40 16 -83
14 -120 -5 -43 -22 -603 -580 -622 -620 -20 -42 -19 -97 1 -137 9 -18 64 -80
121 -138 l104 -106 -57 -114 c-32 -63 -78 -172 -103 -244 l-46 -130 -159 -3
c-176 -4 -199 -10 -238 -64 l-23 -33 -3 -435 c-2 -409 -1 -437 16 -470 38 -69
54 -74 239 -80 l165 -5 47 -135 c52 -149 93 -242 135 -308 l27 -44 -53 -55
c-131 -138 -151 -160 -169 -188 -22 -36 -25 -95 -5 -133 8 -15 149 -160 313
-324 258 -256 304 -298 340 -307 80 -22 113 -4 243 129 l115 118 118 -58 c65
-31 165 -73 223 -91 l104 -34 0 -154 c0 -179 13 -223 78 -263 37 -23 40 -23
447 -26 410 -3 410 -3 454 20 80 41 85 55 91 250 l5 170 135 47 c74 26 176 68
225 93 l90 46 121 -118 c90 -88 130 -121 161 -130 79 -24 90 -15 411 304 162
160 302 308 313 328 23 45 24 88 3 131 -9 18 -63 80 -121 138 l-104 106 35 61
c49 83 72 135 126 292 l46 135 167 5 c184 6 201 11 242 81 19 33 20 52 20 459
0 411 -1 426 -21 460 -32 55 -77 80 -144 80 -31 0 -105 3 -163 6 l-106 7 -41
121 c-23 67 -69 176 -102 244 l-61 123 116 117 c125 127 138 152 118 228 -9
32 -62 91 -313 341 -167 166 -316 307 -331 312 -37 14 -83 14 -110 0 -12 -6
-76 -65 -142 -130 l-121 -120 -114 55 c-93 43 -205 85 -327 122 -10 2 -13 46
-13 172 0 159 -1 171 -23 203 -12 18 -38 44 -56 56 l-34 23 -416 0 c-323 -1
-423 -4 -446 -14z m685 -432 c0 -167 10 -211 54 -239 12 -7 67 -25 123 -39
166 -42 332 -112 476 -202 78 -48 125 -56 175 -30 15 8 74 62 132 120 l105
106 172 -172 173 -172 -104 -106 c-61 -61 -107 -117 -111 -133 -13 -51 2 -105
53 -189 103 -172 168 -325 207 -488 40 -167 59 -180 269 -180 l146 0 0 -250 0
-250 -152 0 c-213 0 -221 -5 -263 -178 -40 -164 -113 -336 -205 -482 -44 -71
-54 -95 -58 -142 l-4 -57 110 -114 111 -113 -174 -174 -175 -174 -118 117
c-121 119 -129 124 -197 117 -11 -1 -56 -23 -100 -50 -162 -97 -285 -149 -453
-191 -187 -46 -192 -54 -192 -284 l0 -155 -244 0 -245 0 -3 174 -3 175 -29 30
c-21 22 -47 34 -100 46 -200 48 -349 108 -491 198 -96 61 -140 71 -193 43 -15
-8 -74 -62 -132 -120 l-105 -106 -172 172 -172 172 104 107 c143 147 148 173
57 322 -99 163 -163 312 -207 486 -44 174 -55 181 -270 181 l-145 0 0 249 0
250 164 3 165 3 29 28 c24 23 35 50 57 135 45 182 91 286 238 542 14 25 26 56
27 70 6 75 3 80 -112 197 l-112 113 174 175 174 175 122 -120 121 -120 49 0
c41 0 62 8 134 51 159 96 290 151 453 193 113 29 132 38 157 79 18 28 20 51
20 195 l0 162 245 0 245 0 0 -156z"/>
<path d="M4926 6324 c-481 -87 -868 -474 -951 -952 -19 -109 -19 -286 0 -395
80 -462 408 -815 864 -934 129 -33 337 -42 466 -19 449 79 806 393 929 817 74
257 58 547 -44 792 -69 167 -228 366 -388 487 -131 99 -343 186 -512 210 -93
14 -272 11 -364 -6z m370 -293 c345 -71 610 -349 678 -711 21 -108 20 -195 -3
-305 -74 -360 -348 -632 -706 -700 -210 -41 -442 7 -616 126 -189 129 -313
301 -370 514 -31 113 -31 307 0 420 124 462 569 749 1017 656z"/>
</g>
</svg>
